<svg version="1.1" xmlns="http://www.w3.org/2000/svg" viewBox="0 0 720.5714285714287 1075.2539682539682" width="1441.1428571428573" height="2150.5079365079364">
  <!-- svg-source:excalidraw -->
  
  <defs>
    <style>
      @font-face {
        font-family: "Virgil";
        src: url("https://excalidraw.com/Virgil.woff2");
      }
      @font-face {
        font-family: "Cascadia";
        src: url("https://excalidraw.com/Cascadia.woff2");
      }
    </style>
  </defs>
  <rect x="0" y="0" width="720.5714285714287" height="1075.2539682539682" fill="#ffffff"></rect><g stroke-linecap="round" transform="translate(20.63492063492083 10) rotate(0 333.00000000000006 160)"><path d="M0.66 0.34 C158.4 -1.15, 317.71 -0.81, 665.44 0.58 M0.16 -0.17 C142.25 -2.48, 284.72 -1.99, 665.95 -0.24 M666.64 -0.5 C668.38 120.69, 668.78 237.82, 665.75 320.55 M666.15 -0.07 C665.73 116.59, 665.79 232.76, 665.63 319.73 M666.58 320.58 C459.6 322.23, 254.73 322.86, -0.57 320.14 M666.1 320.11 C448.41 318.34, 229.94 318.19, 0.39 320.28 M0.42 320.52 C0.7 234.87, 0.26 151.08, 1.22 1.06 M-0.25 319.35 C-0.58 217.07, -1.23 112.6, 0.64 -0.09" stroke="#364fc7" stroke-width="1" fill="none"></path></g><g stroke-linecap="round" transform="translate(10 508.1111111111112) rotate(0 167.92857142857156 133.6428571428571)"><path d="M0.74 1 C76.67 -0.74, 152.69 -0.57, 336.13 0.77 M-0.44 -0.56 C130.27 2.18, 260.38 1.25, 335.63 -0.2 M336.63 0.31 C334.22 91.43, 333.78 179.19, 335.85 268.62 M335.38 -0.51 C336.48 53.63, 336.28 109.28, 335.55 267.98 M336.63 268.51 C261.67 265.52, 186.2 265.22, -1.26 266.35 M335.39 266.89 C232.73 268.01, 128.46 267.78, -0.55 267.23 M-1.48 268.64 C-1.52 182.59, -0.06 94.87, 0.94 0.02 M0.55 266.6 C0.45 195.64, -0.53 122.16, 0.38 -0.13" stroke="#000000" stroke-width="1" fill="none"></path></g><g stroke-linecap="round" transform="translate(370.57142857142867 794.2539682539681) rotate(0 170 135)"><path d="M-0.92 0.12 C91.06 2.56, 178.89 1.34, 341.26 -0.03 M-0.06 0.15 C108.97 1.4, 216.94 2.41, 339.61 0.59 M340.02 -0.46 C339.81 90.04, 340.74 179.01, 341.32 271.49 M339.87 -0.68 C339.16 69.76, 339.25 140.36, 340.46 270.26 M340.74 269.17 C234.16 269.26, 126.02 268.2, 0.84 270.97 M340.55 270.28 C258.13 270.23, 177.02 270.52, -0.47 270.48 M0.62 269.32 C-0.94 211.4, -0.91 155.57, -0.19 -0.94 M0.36 269.72 C-0.89 170.12, -0.67 68.25, -0.14 0.31" stroke="#0b7285" stroke-width="1" fill="none"></path></g><g transform="translate(27.63492063492083 16.5) rotate(0 102.5 13)"><text x="0" y="18" font-family="Virgil, Segoe UI Emoji" font-size="20px" fill="#364fc7" text-anchor="start" style="white-space: pre;" direction="ltr">Observability Cluster</text></g><g transform="translate(374.57142857142867 1039.2539682539682) rotate(0 98.5 13)"><text x="0" y="18" font-family="Virgil, Segoe UI Emoji" font-size="20px" fill="#0b7285" text-anchor="start" style="white-space: pre;" direction="ltr">Downstream Cluster</text></g><g stroke-linecap="round" transform="translate(379.57142857142867 803.2539682539681) rotate(0 75 18.5)"><path d="M-1.57 1.83 C55.24 -0.62, 111.72 -1.29, 149.54 1.39 M-0.76 -0.11 C57.43 -1.18, 114.77 -1.87, 150.9 -0.32 M149.48 0.82 C148.94 10.89, 151.55 17.96, 150.28 36.2 M150.53 -0.83 C148.81 9.24, 150.6 20.12, 149.46 37.11 M148.2 35.04 C107.02 35.22, 66.12 35.65, -0.18 38.9 M149.08 37.82 C113.84 38.21, 75.03 38.09, 0.75 36.85 M-0.18 35.8 C-1.61 27.95, -1.02 21.67, 0.52 -0.84 M-0.47 37.4 C-0.06 27.1, 0.65 15.49, 0.7 -0.29" stroke="#087f5b" stroke-width="1" fill="none"></path></g><g transform="translate(415.5714285714288 807.2539682539681) rotate(0 36 13)"><text x="36" y="18" font-family="Virgil, Segoe UI Emoji" font-size="20px" fill="#087f5b" text-anchor="middle" style="white-space: pre;" direction="ltr">Ingress</text></g><g stroke-linecap="round" transform="translate(541.5714285714282 803.2539682539681) rotate(0 80 18.5)"><path d="M0.3 -1.57 C51.24 1.13, 104.34 1.23, 161.4 -1.62 M-0.11 0.96 C60.21 -2.01, 119.48 -0.95, 159.4 0.09 M160.58 -0.47 C158.53 15.07, 160.08 24.93, 159.38 35.85 M160.36 -0.83 C159.5 11.08, 159.99 23.84, 159.65 37.81 M159.86 37.35 C111.29 38.4, 64.79 36.11, -1.01 37.22 M160.86 37.08 C109.25 36.99, 56.59 38.19, -0.28 36.57 M-0.38 35.84 C-2.16 27.71, -0.33 18.27, -1.72 0.96 M0.59 36.64 C-0.45 24.92, -1.28 15.41, 0.45 0.93" stroke="#c92a2a" stroke-width="1" fill="none"></path></g><g transform="translate(563.5714285714282 808.7539682539681) rotate(0 59 13)"><text x="59" y="18" font-family="Virgil, Segoe UI Emoji" font-size="20px" fill="#c92a2a" text-anchor="middle" style="white-space: pre;" direction="ltr">Atlas Envoy</text></g><g stroke-linecap="round" transform="translate(444.57142857142867 873.2539682539681) rotate(0 77.5 18.5)"><path d="M-1.89 1 C56.49 -1.68, 113.2 -2.9, 155.04 -1.64 M0.26 0.01 C35.48 -0.21, 72.12 0.12, 155.4 0.1 M155.79 -0.67 C155.11 10.59, 155.53 20.55, 154.73 35.66 M155.25 0.06 C155.14 9.1, 154.66 18.98, 155.83 37.74 M153.89 38.88 C110.72 39.58, 63.75 38.26, 0.62 35.66 M154.19 37.69 C122.02 36.3, 90.76 35.83, -0.58 37.95 M-1.85 36.55 C-0.59 21.67, 1.86 8.59, -0.44 0.16 M-0.23 36.54 C-0.98 27.2, -0.28 16.72, 0.7 0.23" stroke="#c92a2a" stroke-width="1" fill="none"></path></g><g transform="translate(467.07142857142867 879.2539682539681) rotate(0 55.5 13)"><text x="55.5" y="18" font-family="Virgil, Segoe UI Emoji" font-size="20px" fill="#c92a2a" text-anchor="middle" style="white-space: pre;" direction="ltr">Prometheus</text></g><g stroke-linecap="round" transform="translate(532.0714285714282 917.7539682539681) rotate(0 83.5 18.5)"><path d="M-0.86 0.2 C63.43 1.52, 127.05 -0.15, 166.25 1.55 M-0.61 0.85 C59.2 0.23, 118.36 0.27, 166.7 -0.88 M168.86 -1.2 C165.88 10.39, 168.71 19.03, 165.11 36.21 M167.78 0.38 C167.22 9.63, 167.32 18.57, 167.05 37.26 M168.43 36.74 C108.48 34.8, 49.34 36.33, 1.48 36.93 M167.98 37.19 C118.69 37.82, 69.77 37.72, -0.98 36.49 M-1.54 36.05 C-0.17 27.46, 0.41 21.48, 1.68 -0.54 M0.79 37.14 C-0.57 22.25, 0.44 9.22, 0.38 -0.76" stroke="#c92a2a" stroke-width="1" fill="none"></path></g><g transform="translate(540.5714285714282 923.7539682539681) rotate(0 75.5 13)"><text x="75.5" y="18" font-family="Virgil, Segoe UI Emoji" font-size="20px" fill="#c92a2a" text-anchor="middle" style="white-space: pre;" direction="ltr">Thanos Sidecar</text></g><g stroke-linecap="round" transform="translate(379.57142857142867 980.2539682539681) rotate(0 72.5 18.5)"><path d="M0.4 -0.08 C30.85 1.05, 56.92 -2.26, 143.76 -1.78 M0.73 -0.74 C36.96 0.34, 74.43 0.5, 145.2 -0.33 M146.42 -0.63 C143.61 13.18, 146.2 26.47, 146.24 38.74 M145 -0.41 C144.66 11.4, 144.79 21.06, 144.49 37.04 M145.24 35.08 C105.3 40.16, 61.76 38.05, 0.54 35.81 M144.55 37.58 C96.74 38.06, 47.56 37.53, 0.06 37.99 M-1.1 38.45 C-0.76 28.56, 0.05 23.79, 0.61 -0.11 M-0.55 36.83 C0.18 23.18, -0.16 9.3, -0.05 -0.62" stroke="#1864ab" stroke-width="1" fill="none"></path></g><g transform="translate(411.5714285714288 986.2539682539681) rotate(0 39.5 13)"><text x="0" y="18" font-family="Virgil, Segoe UI Emoji" font-size="20px" fill="#1864ab" text-anchor="start" style="white-space: pre;" direction="ltr">Web App</text></g><g stroke-linecap="round" transform="translate(257.63492063492083 274.5) rotate(0 210.50000000000006 22.499999999999986)"><path d="M-0.06 0.91 C133.33 -0.16, 265 -0.86, 421.38 0.49 M-0.33 0.48 C127.4 0.38, 254.78 -0.11, 420.88 -0.04 M420.98 -0.48 C419.88 13.17, 419.5 24.38, 419.87 43.68 M420.04 -0.21 C421.34 10.13, 420.82 22.42, 420.83 45.69 M421.66 45.21 C324.69 46.54, 227.64 45.99, 0.09 44.97 M420.94 45.41 C254.18 44.98, 87.57 45.39, -0.24 44.55 M1.69 43.5 C1.54 33.29, 1.16 19.49, 0.04 -1.03 M0.14 45.05 C-0.62 29.83, -0.26 16.43, 0.31 0.92" stroke="#c92a2a" stroke-width="1" fill="none"></path></g><g transform="translate(402.63492063492083 284) rotate(0 59.00000000000006 13)"><text x="59" y="18" font-family="Virgil, Segoe UI Emoji" font-size="20px" fill="#c92a2a" text-anchor="middle" style="white-space: pre;" direction="ltr">Atlas Envoy</text></g><g stroke-linecap="round" transform="translate(367.7063492063495 116.92857142857142) rotate(0 155.2142857142856 26.785714285714278)"><path d="M0.13 0.76 C80.54 2.76, 160.1 2.02, 310.73 -0.66 M0.39 0 C88.66 -1.57, 177.68 -0.9, 310.45 0.02 M311.09 1.55 C311.57 13.98, 310.67 28.96, 309.05 51.78 M310.76 -0.84 C310.01 21.55, 309.98 41.83, 310.49 53.01 M311.72 54.34 C189.84 52.2, 69.64 52.74, 0.78 54.51 M310.52 54.08 C210.16 54.81, 111.05 54.82, 0.04 54 M1.38 53.96 C2.49 35.33, -1.11 17.93, -0.65 -0.17 M-0.1 53.76 C-0.48 35.35, 0.28 16.23, -0.58 0.6" stroke="#c92a2a" stroke-width="1" fill="none"></path></g><g transform="translate(450.06349206349216 132.71428571428572) rotate(0 67.49999999999994 13)"><text x="67.5" y="18" font-family="Virgil, Segoe UI Emoji" font-size="20px" fill="#c92a2a" text-anchor="middle" style="white-space: pre;" direction="ltr">Thanos Query</text></g><g stroke-linecap="round" transform="translate(35.563492063492276 54.07142857142857) rotate(0 147.50000000000006 22.999999999999982)"><path d="M1.1 -0.54 C74.35 -0.62, 150.35 -0.82, 295.89 -0.38 M0.39 0.07 C89.87 -0.73, 179.89 -0.89, 294.53 0.65 M293.64 0 C292.93 12.51, 296.2 27.01, 294.91 47.9 M294.86 0.02 C293.89 8.82, 295.31 18.31, 295.9 45.13 M294.71 46.97 C215.08 48.09, 136.12 46.25, 0.74 46.37 M295.13 46.26 C214.79 46.77, 135.34 47.63, 0.49 45.64 M-0.32 46.59 C0.31 35.31, -0.03 24.7, 1.46 1.5 M0.22 45.27 C-0.83 27.48, 0.2 10.25, -0.12 -0.28" stroke="#c92a2a" stroke-width="1" fill="none"></path></g><g transform="translate(118.20634920634939 65) rotate(0 63.5 13)"><text x="63.5" y="18" font-family="Virgil, Segoe UI Emoji" font-size="20px" fill="#c92a2a" text-anchor="middle" style="white-space: pre;" direction="ltr">Alertmanager</text></g><g transform="translate(158.42857142857167 595.6825396825396) rotate(0 38.5 38.5)"><text x="38.5" y="17.666666666666668" font-family="Virgil, Segoe UI Emoji" font-size="20px" fill="#000000" text-anchor="middle" style="white-space: pre;" direction="ltr">User</text><text x="38.5" y="43.333333333333336" font-family="Virgil, Segoe UI Emoji" font-size="20px" fill="#000000" text-anchor="middle" style="white-space: pre;" direction="ltr">Admin</text><text x="38.5" y="69" font-family="Virgil, Segoe UI Emoji" font-size="20px" fill="#000000" text-anchor="middle" style="white-space: pre;" direction="ltr">Browser</text></g><g stroke-linecap="round" transform="translate(30.63492063492083 274.5) rotate(0 103.5 22)"><path d="M0.77 1.26 C77.21 1.04, 152.87 -1.06, 205.32 1.43 M-0.7 0.77 C53.67 -0.33, 105.67 -0.73, 207.58 -0.55 M207.81 -0.63 C206.22 10.16, 208.07 20.04, 206.91 42.25 M206.04 -0.16 C206.31 11.47, 207.89 22.53, 207.19 43.97 M205.58 42.26 C147.87 41.92, 90.39 42.72, -0.88 42.23 M206.62 44.82 C155.31 46.35, 103.21 45.62, -0.86 43.45 M0.76 45.11 C0.25 27.18, -0.11 11.86, -1.85 -1.59 M-0.12 43.15 C1.21 27.07, 0.54 12.05, 0.26 -0.87" stroke="#087f5b" stroke-width="1" fill="none"></path></g><g transform="translate(90.63492063492083 283.5) rotate(0 36 13)"><text x="36" y="18" font-family="Virgil, Segoe UI Emoji" font-size="20px" fill="#087f5b" text-anchor="middle" style="white-space: pre;" direction="ltr">Ingress</text></g><g stroke-linecap="round" transform="translate(87.56349206349228 119.35714285714286) rotate(0 120.92857142857144 26.071428571428555)"><path d="M-0.23 -0.92 C62.66 -0.2, 125.46 -3.34, 242.64 1.15 M-0.73 -0.1 C92.32 -0.98, 184.07 -0.72, 241.76 -0.22 M242.99 0.78 C243.32 11.8, 240.36 21.62, 239.95 52 M241.48 -0.43 C241.39 18.97, 242.61 39.09, 242.04 51.21 M240.28 53.49 C170.81 52.7, 96.49 54.42, -0.42 52.39 M241.94 51.87 C149.25 52.11, 56.46 51.88, -0.39 52.09 M1.98 50.51 C0.73 40.83, -1.1 30.21, 1.79 -0.6 M0.6 51.95 C0.32 35.87, -0.53 21.31, -0.76 0.94" stroke="#c92a2a" stroke-width="1" fill="none"></path></g><g transform="translate(161.63492063492083 130.71428571428572) rotate(0 41.5 13.000000000000004)"><text x="41.5" y="18" font-family="Virgil, Segoe UI Emoji" font-size="20px" fill="#c92a2a" text-anchor="middle" style="white-space: pre;" direction="ltr">Grafana</text></g><g stroke-linecap="round" transform="translate(369.1428571428572 505.7539682539683) rotate(0 170.00000000000006 135)"><path d="M1.18 0.95 C116.68 2.2, 232.56 3.37, 339.14 0.56 M0.45 -0.61 C67.82 -0.28, 136.25 -0.32, 339.66 -0.37 M338.68 -1.37 C338.38 89.14, 339.54 177.81, 338.88 270.75 M340.38 -0.1 C342.05 74.68, 341 149.45, 340.62 270.42 M340.8 269.73 C215.93 272.44, 89.98 273.27, -0.16 269.59 M340.11 270.36 C251.76 269.09, 164.69 268.17, -0.25 269.37 M-0.03 270.56 C2.49 200.42, -0.33 131.5, 0.06 -0.35 M0.16 270.77 C1.1 181.72, 1.14 94.26, 0.49 -0.21" stroke="#0b7285" stroke-width="1" fill="none"></path></g><g transform="translate(373.1428571428572 750.7539682539683) rotate(0 98.50000000000006 13)"><text x="0" y="18" font-family="Virgil, Segoe UI Emoji" font-size="20px" fill="#0b7285" text-anchor="start" style="white-space: pre;" direction="ltr">Downstream Cluster</text></g><g stroke-linecap="round" transform="translate(378.1428571428572 514.7539682539683) rotate(0 75.00000000000006 18.5)"><path d="M0.15 0.07 C29.83 0.75, 60.2 -0.22, 148.01 -0.27 M-0.57 -0.63 C43.86 0.68, 87.63 0.82, 150.27 -0.05 M148.06 1.19 C149.23 16.23, 148.26 29.84, 149.53 38.27 M150.91 -0.04 C149.73 8.13, 150.97 16.76, 150.67 37.42 M150.98 37.63 C90.76 38.57, 33.02 36.08, -0.84 35.2 M149.32 37.42 C113.23 36.83, 75.29 36.85, -0.44 36.44 M1.67 36.55 C-1.93 25.53, 0.08 13.71, 0.53 -1.7 M-0.88 36.83 C-0.91 24.35, 0.56 10.04, -0.19 0.2" stroke="#087f5b" stroke-width="1" fill="none"></path></g><g transform="translate(414.1428571428572 518.7539682539683) rotate(0 36 13)"><text x="36" y="18" font-family="Virgil, Segoe UI Emoji" font-size="20px" fill="#087f5b" text-anchor="middle" style="white-space: pre;" direction="ltr">Ingress</text></g><g stroke-linecap="round" transform="translate(540.1428571428567 514.7539682539683) rotate(0 80 18.5)"><path d="M-0.91 1.82 C58.07 0.79, 116.74 -0.33, 159.88 1.36 M-0.21 -0.7 C32.76 0.44, 66.82 0.96, 160.9 -0.85 M159.54 1.79 C158.21 8.81, 159.18 16.98, 158.38 37.96 M159.56 0.02 C161.13 11.15, 161 21.64, 160.89 37.6 M159.13 38.87 C115.01 36.89, 69.67 35.71, -1.04 37.33 M160.4 36.03 C103.1 36.72, 46.52 37.11, 0.09 36.98 M-1.94 36.95 C-0.23 24.14, 0.22 10.48, 1.21 0.4 M-0.83 37.7 C0.96 22.02, 0.13 7.77, 0.96 0.07" stroke="#c92a2a" stroke-width="1" fill="none"></path></g><g transform="translate(562.1428571428567 520.2539682539683) rotate(0 59 13)"><text x="59" y="18" font-family="Virgil, Segoe UI Emoji" font-size="20px" fill="#c92a2a" text-anchor="middle" style="white-space: pre;" direction="ltr">Atlas Envoy</text></g><g stroke-linecap="round" transform="translate(443.1428571428572 584.7539682539683) rotate(0 77.50000000000006 18.5)"><path d="M-1.29 0.85 C45.09 -1.68, 94.03 -0.05, 153.16 -1.14 M-0.52 -0.56 C37.04 1.03, 74.45 0.23, 154.12 -0.97 M153.57 0.95 C154.45 14.57, 153.3 27.57, 154.74 38.81 M155.79 0.54 C155.5 11.38, 155.73 22.5, 154.8 37.49 M154.75 36.38 C102.79 36.66, 51.21 38.78, 1.07 35.63 M154.63 36.05 C101.6 34.94, 49.16 35.49, 0.35 37.83 M0.08 36.55 C0.89 25.04, 1.57 16.87, 1.95 -1.76 M0.63 36.73 C0.12 26.73, 1.27 16.12, -0.72 0.48" stroke="#c92a2a" stroke-width="1" fill="none"></path></g><g transform="translate(465.6428571428572 590.7539682539683) rotate(0 55.50000000000006 13)"><text x="55.5" y="18" font-family="Virgil, Segoe UI Emoji" font-size="20px" fill="#c92a2a" text-anchor="middle" style="white-space: pre;" direction="ltr">Prometheus</text></g><g stroke-linecap="round" transform="translate(530.6428571428567 629.2539682539683) rotate(0 83.5 18.5)"><path d="M-1.99 -0.27 C65.15 0.65, 128.72 -1.84, 165.74 -0.42 M0.27 -0.05 C39.38 0.09, 76.07 -0.03, 167.6 -0.23 M166.53 1.27 C165.12 15.38, 166.47 30.64, 166.92 36.11 M167.67 0.42 C168.18 11.79, 167.09 22.87, 167.31 36.57 M166.16 35.2 C100.2 36.82, 36.56 35.12, 0.83 37.8 M166.56 36.44 C133.11 35.4, 99.4 36.25, -0.23 36.03 M0.53 35.3 C1.2 26.39, 1.94 13.21, -0.34 -1.67 M-0.19 37.2 C0.72 23.37, -0.95 10.09, 0.89 -0.67" stroke="#c92a2a" stroke-width="1" fill="none"></path></g><g transform="translate(539.1428571428567 635.2539682539683) rotate(0 75.5 13)"><text x="75.5" y="18" font-family="Virgil, Segoe UI Emoji" font-size="20px" fill="#c92a2a" text-anchor="middle" style="white-space: pre;" direction="ltr">Thanos Sidecar</text></g><g stroke-linecap="round" transform="translate(378.1428571428572 691.7539682539683) rotate(0 72.50000000000006 18.5)"><path d="M-0.12 1.36 C47.79 -0.94, 98 -0.22, 143.61 -1.03 M0.9 -0.85 C34.49 -0.9, 71.34 -0.16, 145.9 -0.71 M143.38 0.96 C144.65 14.68, 144.83 24.84, 145.05 38.59 M145.89 0.6 C145.04 13.57, 145.56 25.73, 145.94 36.88 M143.96 37.33 C107.04 34.33, 67.79 36.49, -1.93 36.25 M145.09 36.98 C115.57 37.02, 85.21 35.22, -0.02 37.04 M1.21 37.4 C1.86 24.96, -0.44 14.78, 1.4 1.26 M0.96 37.07 C-0.65 27.38, 0.96 16.12, -0.25 -0.23" stroke="#1864ab" stroke-width="1" fill="none"></path></g><g transform="translate(410.1428571428572 697.7539682539683) rotate(0 39.5 13)"><text x="0" y="18" font-family="Virgil, Segoe UI Emoji" font-size="20px" fill="#1864ab" text-anchor="start" style="white-space: pre;" direction="ltr">Web App</text></g><g stroke-linecap="round" transform="translate(492.0634920634923 25.85714285714286) rotate(0 90 34.14285714285714)"><path d="M0.74 -1.68 C45.88 1.37, 95.01 -0.17, 181.41 -1.44 M0 -0.56 C57.36 -1.57, 112.44 -0.32, 179.64 0.16 M180.25 -1.6 C178.57 16.73, 181.42 31.86, 181 69.86 M179.5 -0.32 C181.41 15.42, 179.57 29.98, 179.18 69.18 M178.09 68.21 C132.81 67.65, 87.94 69.99, 0.48 67.07 M180.44 67.81 C135.35 66.58, 88.85 67.37, -0.83 67.68 M-0.33 66.84 C2.34 47.94, 2.18 25.6, -0.65 1.22 M-0.85 67.92 C0.83 42.36, 0.8 18.41, 0.73 0.04" stroke="#364fc7" stroke-width="1" fill="none"></path></g><g transform="translate(547.6349206349207 48.428571428571416) rotate(0 33 13)"><text x="33" y="18" font-family="Virgil, Segoe UI Emoji" font-size="20px" fill="#000000" text-anchor="middle" style="white-space: pre;" direction="ltr">ATLAS</text></g><g stroke-linecap="round" transform="translate(10 793.6825396825395) rotate(0 170 135)"><path d="M0.82 0.36 C83.59 -0.98, 167.61 -1.65, 340.02 1.08 M-0.59 0.09 C106.04 0.82, 213.46 0.47, 340.25 0.56 M340.65 -1.08 C340.53 96.37, 342.5 190.19, 341.21 270.13 M340.33 -0.6 C341.37 103.68, 341.77 208.43, 339.58 270.71 M339.56 270.81 C223.23 267.97, 104.94 269.54, -0.74 268.7 M339.85 270.21 C266.36 270.65, 192.53 270.27, -0.02 270.33 M-0.48 270.63 C-0.59 172.9, -1.66 78.44, -0.93 1.3 M-0.66 270.37 C-1.97 209.22, -1.27 148.28, -0.61 -0.72" stroke="#0b7285" stroke-width="1" fill="none"></path></g><g transform="translate(14 1038.6825396825393) rotate(0 98.5 13)"><text x="0" y="18" font-family="Virgil, Segoe UI Emoji" font-size="20px" fill="#0b7285" text-anchor="start" style="white-space: pre;" direction="ltr">Downstream Cluster</text></g><g stroke-linecap="round" transform="translate(19 802.6825396825395) rotate(0 75 18.5)"><path d="M0.07 0.81 C55.87 -0.59, 110.2 1.21, 150.26 -0.27 M-0.63 0.73 C43.56 0.01, 85.93 0.65, 150.54 0.68 M148.83 0.88 C151.5 11.82, 151.69 26.77, 151.72 38.61 M149.58 -0.64 C150.24 13.48, 149.62 27.69, 150.45 37.69 M150.74 35.45 C110.78 38.72, 72.02 35.97, -1.67 35.8 M149.91 37.14 C100.83 37.04, 52.56 37.98, 0.57 37.89 M1.65 36.1 C0.4 26.2, -1.07 13.94, -1.49 1.39 M-0.64 37.21 C0.56 29.17, -0.47 19.96, -0.45 -0.99" stroke="#087f5b" stroke-width="1" fill="none"></path></g><g transform="translate(55 806.6825396825395) rotate(0 36 13)"><text x="36" y="18" font-family="Virgil, Segoe UI Emoji" font-size="20px" fill="#087f5b" text-anchor="middle" style="white-space: pre;" direction="ltr">Ingress</text></g><g stroke-linecap="round" transform="translate(180.99999999999955 802.6825396825395) rotate(0 80 18.5)"><path d="M0.79 -0.18 C52.35 0.97, 104.9 -0.92, 159.7 -1.77 M0.79 0.2 C50.44 -0.32, 100.65 -0.48, 160.6 0.42 M161.35 -1.48 C161.32 8.71, 161.5 18.69, 161.24 37.84 M160.09 0.08 C159.31 9.18, 160.29 17.24, 159.56 36.67 M159.21 37.8 C101.14 33.81, 42.85 34.56, 0.49 36.56 M159.53 36.56 C106.84 37.72, 54.32 38.12, 0.34 36.7 M0.29 38.56 C-1.49 26.07, -1.79 13.21, -1.64 -1.68 M0.25 37.23 C-0.54 23.24, -0.21 10.32, 0.98 -0.1" stroke="#c92a2a" stroke-width="1" fill="none"></path></g><g transform="translate(202.99999999999955 808.1825396825395) rotate(0 59 13)"><text x="59" y="18" font-family="Virgil, Segoe UI Emoji" font-size="20px" fill="#c92a2a" text-anchor="middle" style="white-space: pre;" direction="ltr">Atlas Envoy</text></g><g stroke-linecap="round" transform="translate(84 872.6825396825395) rotate(0 77.5 18.5)"><path d="M0.03 1.62 C53.06 -0.12, 105.3 -1.63, 155.26 -1.26 M0.38 0.85 C58.34 0.37, 116.19 0.1, 154.31 -0.58 M156.54 0.17 C156.97 14.34, 156.49 26.3, 153.47 36.16 M154.46 0.9 C155.48 9.42, 154.59 17.14, 155.61 37.37 M153.88 35.05 C118.85 36.42, 86.55 37.18, 0.64 36.81 M154.96 37.5 C106.88 37.21, 57.96 36.01, 0.4 37.83 M-1.19 38.66 C-1.54 28.95, -1.69 16.46, 0.94 -1.29 M-0.78 36.08 C-0.54 24.12, 0.89 13.13, -0.76 0.27" stroke="#c92a2a" stroke-width="1" fill="none"></path></g><g transform="translate(106.5 878.6825396825395) rotate(0 55.5 13)"><text x="55.5" y="18" font-family="Virgil, Segoe UI Emoji" font-size="20px" fill="#c92a2a" text-anchor="middle" style="white-space: pre;" direction="ltr">Prometheus</text></g><g stroke-linecap="round" transform="translate(171.49999999999955 917.1825396825395) rotate(0 83.5 18.5)"><path d="M0.26 -0.27 C48.29 -3.12, 97.42 -2.61, 168.46 1.58 M0.54 0.68 C54.06 -1, 106.23 -2, 167.44 0.67 M168.72 1.61 C168.52 9.2, 165.76 15.88, 165.72 37.17 M167.45 0.69 C166.36 11.08, 167.41 23.18, 166.22 36.6 M165.33 35.8 C110.68 34.93, 54.01 35.19, 0.28 36.07 M167.57 37.89 C124.57 37.52, 81.86 38.65, -0.45 37.14 M-1.49 38.39 C-1.42 21.33, 1.16 7.72, 0.42 0.51 M-0.45 36.01 C1.27 24.94, -0.48 13.36, 0.55 -0.74" stroke="#c92a2a" stroke-width="1" fill="none"></path></g><g transform="translate(179.99999999999955 923.1825396825395) rotate(0 75.5 13)"><text x="75.5" y="18" font-family="Virgil, Segoe UI Emoji" font-size="20px" fill="#c92a2a" text-anchor="middle" style="white-space: pre;" direction="ltr">Thanos Sidecar</text></g><g stroke-linecap="round" transform="translate(19 979.6825396825395) rotate(0 72.5 18.5)"><path d="M-0.3 -1.77 C55.48 -1.07, 111.9 1.77, 145.4 0.76 M0.6 0.42 C55.07 -1.57, 111.97 -0.32, 144.26 0.77 M146.24 0.84 C143.79 10.56, 144.04 22.99, 145.17 35.92 M144.56 -0.33 C145.77 14.81, 144.39 28.48, 145.4 36.44 M145.49 36.56 C116.26 35.94, 86.53 35.2, -0.88 36.93 M145.34 36.7 C94.72 39.12, 43.19 38.43, 0.78 36.41 M-1.64 35.32 C1.22 21.54, 0.7 9.16, 0.46 -1.55 M0.98 36.9 C-0.6 29.56, 0.72 20.83, -0.78 -0.47" stroke="#1864ab" stroke-width="1" fill="none"></path></g><g transform="translate(51 985.6825396825395) rotate(0 39.5 13)"><text x="0" y="18" font-family="Virgil, Segoe UI Emoji" font-size="20px" fill="#1864ab" text-anchor="start" style="white-space: pre;" direction="ltr">Web App</text></g><g stroke-linecap="round"><g transform="translate(64.41657771704763 506.3253968253967) rotate(0 0.4216214501439026 -200.58031304233177)"><path d="M-0.87 -1.13 C-0.4 -67.95, 1.28 -335.53, 1.71 -402.05 M0.87 0.89 C1.34 -65.69, 0.99 -333.7, 1.05 -400.84" stroke="#343a40" stroke-width="1" fill="none"></path></g><g transform="translate(64.41657771704763 506.3253968253967) rotate(0 0.4216214501439026 -200.58031304233177)"><path d="M9.44 -371.73 C8.43 -377.59, 9.35 -385.54, 2.32 -400.68 M11.54 -372.09 C8.54 -380.13, 5.92 -389.26, 1.59 -400.63" stroke="#343a40" stroke-width="1" fill="none"></path></g><g transform="translate(64.41657771704763 506.3253968253967) rotate(0 0.4216214501439026 -200.58031304233177)"><path d="M-11.08 -371.73 C-7.87 -377.44, -2.73 -385.39, 2.32 -400.68 M-8.98 -372.09 C-6.3 -379.94, -3.24 -389.07, 1.59 -400.63" stroke="#343a40" stroke-width="1" fill="none"></path></g></g><g stroke-linecap="round"><g transform="translate(348.57142857142867 533.4682539682537) rotate(0 14.30363269173671 -0.11646213535217953)"><path d="M0.92 0.93 C5.43 0.86, 21.97 0.71, 26.36 0.63 M-0.05 0.37 C4.9 0.47, 24.22 -0.83, 28.66 -1.16" stroke="#343a40" stroke-width="1" fill="none"></path></g><g transform="translate(348.57142857142867 533.4682539682537) rotate(0 14.30363269173671 -0.11646213535217953)"><path d="M17.31 3.46 C19.92 3.07, 22.71 2.58, 29.34 -0.38 M16.69 3.74 C19.85 2.93, 23 1.78, 28.75 -1.17" stroke="#343a40" stroke-width="1" fill="none"></path></g><g transform="translate(348.57142857142867 533.4682539682537) rotate(0 14.30363269173671 -0.11646213535217953)"><path d="M16.67 -5.8 C19.51 -3.96, 22.47 -2.21, 29.34 -0.38 M16.05 -5.52 C19.43 -4, 22.75 -2.82, 28.75 -1.17" stroke="#343a40" stroke-width="1" fill="none"></path></g></g><g stroke-linecap="round"><g transform="translate(402.8571428571429 554.8968253968253) rotate(0 0.7177664510666091 68.94435943710221)"><path d="M0 -0.07 C0.24 22.71, 0.5 114.71, 0.61 137.87 M-1.46 -1.16 C-0.76 22.28, 2.12 116.06, 2.89 139.05" stroke="#343a40" stroke-width="1" fill="none"></path></g><g transform="translate(402.8571428571429 554.8968253968253) rotate(0 0.7177664510666091 68.94435943710221)"><path d="M-8.38 109.84 C-6.6 116.33, -2.3 123.47, 3.12 137.12 M-8.62 111.18 C-4.25 118.78, -1.05 127.96, 3.34 139.84" stroke="#343a40" stroke-width="1" fill="none"></path></g><g transform="translate(402.8571428571429 554.8968253968253) rotate(0 0.7177664510666091 68.94435943710221)"><path d="M12.13 109.18 C9.22 115.82, 8.83 123.11, 3.12 137.12 M11.89 110.52 C9.98 118.51, 6.91 127.89, 3.34 139.84" stroke="#343a40" stroke-width="1" fill="none"></path></g></g><g stroke-linecap="round"><g transform="translate(207.14285714285722 506.3253968253967) rotate(0 174.73907398918993 -66.11054867692292)"><path d="M-0.91 1.72 C2.01 -56.77, 0.15 -111.97, -0.56 -205.85 M0.36 -0.66 C-0.32 -41.34, -1.57 -83.63, 0.19 -205.58 M1.02 -207.44 C57.49 -207.16, 111.99 -206.8, 178.53 -207.42 M-0.19 -204.89 C43.83 -205.19, 85.83 -205.74, 178.86 -204.72 M177.95 -205.99 C218.75 -153.55, 260.13 -103.75, 350.13 6.45 M179.27 -205.84 C242.57 -127.32, 304.98 -50.59, 350.39 7.71 M348.31 6.1 C350.26 35.3, 349.72 61.47, 349.06 75.22 M349.18 7.22 C349.24 25.98, 350.38 43.87, 349.46 75.05" stroke="#c92a2a" stroke-width="1" fill="none"></path></g><g transform="translate(207.14285714285722 506.3253968253967) rotate(0 174.73907398918993 -66.11054867692292)"><path d="M338.59 48.64 C343.86 53.49, 344.46 62.08, 348.83 74.9 M340.01 45.97 C342.19 53.45, 342.8 59.17, 349.68 75.2" stroke="#c92a2a" stroke-width="1" fill="none"></path></g><g transform="translate(207.14285714285722 506.3253968253967) rotate(0 174.73907398918993 -66.11054867692292)"><path d="M359.1 48.94 C358.8 53.8, 353.81 62.32, 348.83 74.9 M360.53 46.27 C358.5 53.81, 354.9 59.47, 349.68 75.2" stroke="#c92a2a" stroke-width="1" fill="none"></path></g></g><g stroke-linecap="round"><g transform="translate(180 507.7539682539681) rotate(0 91.91260610627603 -167.92928032151235)"><path d="M-1.36 0.7 C1.4 -76.05, 2.67 -153.91, -1.34 -212.45 M-0.46 0.55 C-0.84 -60.32, -0.46 -120.11, 0.15 -210.86 M1.26 -211.87 C57.1 -248, 113.3 -285.07, 185.18 -336.55 M-0.34 -210.73 C38.36 -238.44, 76.24 -263.1, 184.15 -336.07" stroke="#343a40" stroke-width="1" fill="none"></path></g><g transform="translate(180 507.7539682539681) rotate(0 91.91260610627603 -167.92928032151235)"><path d="M164.97 -311.01 C172.68 -319.71, 180.53 -329.66, 182.62 -337.22 M165.98 -311.17 C171.36 -318.56, 176.83 -324.88, 184.31 -335.42" stroke="#343a40" stroke-width="1" fill="none"></path></g><g transform="translate(180 507.7539682539681) rotate(0 91.91260610627603 -167.92928032151235)"><path d="M153.49 -328.03 C165.22 -330.55, 177.24 -334.32, 182.62 -337.22 M154.51 -328.19 C163.24 -330.62, 171.98 -332.08, 184.31 -335.42" stroke="#343a40" stroke-width="1" fill="none"></path></g></g><g stroke-linecap="round"><g transform="translate(632.8571428571429 172.0396825396824) rotate(0 4.540412669537659 225.89184754752407)"><path d="M0.96 -0.1 C2.28 174.24, 4.35 348.21, 8 451.88 M0.35 0.18 C0.82 126.8, 3.48 253.84, 8.73 451.53" stroke="#c92a2a" stroke-width="1" fill="none"></path></g><g transform="translate(632.8571428571429 172.0396825396824) rotate(0 4.540412669537659 225.89184754752407)"><path d="M-0.24 423.4 C2.8 433.78, 4.45 443.37, 7.53 452.47 M-1.5 423.98 C-0.14 431.29, 3.47 439.48, 9.06 451.74" stroke="#c92a2a" stroke-width="1" fill="none"></path></g><g transform="translate(632.8571428571429 172.0396825396824) rotate(0 4.540412669537659 225.89184754752407)"><path d="M20.27 422.89 C15.38 433.38, 9.1 443.17, 7.53 452.47 M19.01 423.47 C14.6 430.94, 12.45 439.28, 9.06 451.74" stroke="#c92a2a" stroke-width="1" fill="none"></path></g></g><g stroke-linecap="round"><g transform="translate(330 144.89682539682525) rotate(0 18.589336683574572 1.5537416489874616)"><path d="M1.82 1.59 C8.34 -1.08, 19.85 1.01, 35.87 1.67 M0.11 0.91 C9.51 1.14, 18.65 1.84, 37.07 2.83" stroke="#c92a2a" stroke-width="1" fill="none"></path></g><g transform="translate(330 144.89682539682525) rotate(0 18.589336683574572 1.5537416489874616)"><path d="M20.93 9.68 C22.82 5.07, 29.27 4.97, 35.88 1.73 M19.34 9.05 C23.8 7.24, 27.99 5.83, 37 2.81" stroke="#c92a2a" stroke-width="1" fill="none"></path></g><g transform="translate(330 144.89682539682525) rotate(0 18.589336683574572 1.5537416489874616)"><path d="M21.65 -3.04 C23.24 -4.42, 29.51 -1.28, 35.88 1.73 M20.06 -3.67 C24.3 -2.2, 28.31 -0.34, 37 2.81" stroke="#c92a2a" stroke-width="1" fill="none"></path></g></g><g stroke-linecap="round"><g transform="translate(542.8571428571429 582.0396825396824) rotate(0 -106.13162710610584 -255.32580648577255)"><path d="M-0.06 0.7 C2.21 -95.6, 0.89 -191.41, -0.62 -335.64 M0.23 -0.34 C-0.88 -90.52, -1.5 -181.49, -0.77 -334.57 M-0.88 -332.76 C-60.54 -382.16, -121.54 -429.62, -212.41 -511.35 M-2.17 -334.87 C-73.97 -395.89, -148.65 -457.91, -213.42 -510.14" stroke="#c92a2a" stroke-width="1" fill="none"></path></g><g transform="translate(542.8571428571429 582.0396825396824) rotate(0 -106.13162710610584 -255.32580648577255)"><path d="M-185.17 -499.26 C-191.8 -502.57, -201.27 -505.28, -212.22 -512.14 M-184.74 -500.8 C-192.71 -502.47, -200.74 -505.48, -212.45 -510.56" stroke="#c92a2a" stroke-width="1" fill="none"></path></g><g transform="translate(542.8571428571429 582.0396825396824) rotate(0 -106.13162710610584 -255.32580648577255)"><path d="M-198.13 -483.34 C-200.92 -491.28, -206.67 -498.55, -212.22 -512.14 M-197.7 -484.89 C-202.19 -490.96, -206.7 -498.29, -212.45 -510.56" stroke="#c92a2a" stroke-width="1" fill="none"></path></g></g></svg>